<?xml version="1.0" encoding="UTF-8"?>
<svg xmlns="http://www.w3.org/2000/svg" xmlns:xlink="http://www.w3.org/1999/xlink" width="25px" height="25px" viewBox="0 0 25 25" version="1.1">
<g id="surface1">
<path style=" stroke:none;fill-rule:nonzero;fill:rgb(34.509804%,39.607843%,94.901961%);fill-opacity:1;" d="M 21.175781 4.402344 C 19.558594 3.648438 17.828125 3.097656 16.019531 2.78125 C 15.796875 3.183594 15.539062 3.726562 15.359375 4.15625 C 13.4375 3.867188 11.53125 3.867188 9.644531 4.15625 C 9.464844 3.726562 9.199219 3.183594 8.972656 2.78125 C 7.164062 3.097656 5.429688 3.648438 3.8125 4.40625 C 0.546875 9.339844 -0.335938 14.152344 0.105469 18.890625 C 2.269531 20.507812 4.371094 21.492188 6.433594 22.132812 C 6.941406 21.433594 7.394531 20.6875 7.785156 19.902344 C 7.042969 19.621094 6.328125 19.269531 5.652344 18.863281 C 5.832031 18.730469 6.007812 18.59375 6.175781 18.449219 C 10.289062 20.375 14.757812 20.375 18.824219 18.449219 C 18.996094 18.59375 19.167969 18.730469 19.347656 18.863281 C 18.671875 19.273438 17.953125 19.621094 17.210938 19.90625 C 17.601562 20.6875 18.054688 21.433594 18.5625 22.136719 C 20.628906 21.492188 22.730469 20.511719 24.894531 18.890625 C 25.414062 13.394531 24.007812 8.628906 21.175781 4.402344 Z M 8.347656 15.976562 C 7.113281 15.976562 6.097656 14.824219 6.097656 13.417969 C 6.097656 12.015625 7.089844 10.859375 8.347656 10.859375 C 9.605469 10.859375 10.617188 12.011719 10.59375 13.417969 C 10.597656 14.824219 9.605469 15.976562 8.347656 15.976562 Z M 16.652344 15.976562 C 15.417969 15.976562 14.40625 14.824219 14.40625 13.417969 C 14.40625 12.015625 15.394531 10.859375 16.652344 10.859375 C 17.910156 10.859375 18.921875 12.011719 18.898438 13.417969 C 18.898438 14.824219 17.910156 15.976562 16.652344 15.976562 Z M 16.652344 15.976562 "/>
</g>
</svg>
